<?xml version="1.0" encoding="utf-8"?>
<!-- Generator: Adobe Illustrator 23.0.1, SVG Export Plug-In . SVG Version: 6.00 Build 0)  -->
<svg version="1.1" id="Layer_1" xmlns="http://www.w3.org/2000/svg" xmlns:xlink="http://www.w3.org/1999/xlink" x="0px" y="0px"
	 viewBox="0 0 193.6 202.3" style="enable-background:new 0 0 193.6 202.3;" xml:space="preserve">
<style type="text/css">
	.st0{fill:#E6007E;}
	.st1{font-family:'Roboto-Regular';}
	.st2{font-size:110px;}
</style>
<g>
	<path class="st0" d="M147.2,184.3c0.9,0.3,2.2,0.7,3.7,0.6c2.5-0.1,4.8-1.1,6.6-2.9c1.9-1.9,2.9-4.4,2.8-7
		c-0.2-16.7,10.4-31.3,26.2-36.3c1.1-0.3,2.2-0.9,3-1.5c2.1-1.6,3.4-3.9,3.8-6.3c0.5-2.6-0.2-5.2-1.8-7.4c-10-13.4-10-31.4-0.1-44.7
		l0.7-0.8c0.4-0.5,0.6-0.9,0.8-1.5c0.1-0.1,0.2-0.5,0.2-0.6c0.8-2.5,0.5-5.2-0.6-7.4c-1.2-2.4-3.3-4.1-5.8-4.9
		c-15.8-5-26.4-19.5-26.2-36.1c0-1.2-0.2-2.4-0.6-3.4c-0.8-2.4-2.6-4.4-5-5.6c-2.4-1.1-4.9-1.2-7.3-0.4c-3.9,1.3-8,2-12.1,2
		c-12.2-0.2-23.7-6.1-30.7-16c-0.7-1-1.5-1.8-2.3-2.3c-4.4-3.1-10.6-2.1-13.7,2.3c-7,9.9-18.5,15.8-30.6,15.8c-4.1,0-8.2-0.7-11.9-2
		c-3.3-1.2-7.6-0.3-10.2,2.4c-1.9,1.9-2.9,4.4-2.8,7C33.5,44,22.9,58.5,7.1,63.5C6,63.8,5,64.3,3.9,65.1c-4.3,3.2-5.2,9.4-2,13.7
		c10,13.4,10,31.4,0,44.8c-0.6,0.9-1.1,1.9-1.4,2.8c-0.8,2.5-0.6,5,0.7,7.5c1.3,2.3,3.3,4,5.7,4.8c15.9,5.1,26.4,19.7,26.2,36.1
		c-0.1,1.2,0.1,2.4,0.5,3.6c0.8,2.4,2.6,4.4,5,5.6c2.3,1.1,5,1.2,7.4,0.4c4-1.3,8.1-2,12.2-2c12.2,0,23.3,5.8,30.5,15.8
		c0.6,0.9,1.4,1.7,2.3,2.3c1.7,1.2,3.6,1.8,5.7,1.8c0.6,0,1.1-0.1,1.7-0.1c2.6-0.5,4.9-1.9,6.3-4C114.4,184.6,131.5,179,147.2,184.3
		z M96.8,192.5c-8.9-12.5-23.3-20-38.5-20c-5.2,0-10.4,0.9-15.3,2.6c0.3-21-13-39.4-33-45.7c12.6-16.9,12.6-39.7-0.1-56.5
		C30,66.6,43.4,48.2,43,27.3c4.9,1.7,10,2.5,15.2,2.5c15.3,0,29.8-7.5,38.5-20c8.9,12.5,23.3,20,38.7,20c5.2,0,10.3-0.9,15.1-2.5
		c-0.2,20.9,13.1,39.2,33.1,45.3l-0.1,0.1c-12.6,16.9-12.5,39.7,0.2,56.5c-20.1,6.3-33.5,24.7-33.2,45.7h-0.1
		C130.5,168.2,108.8,175.2,96.8,192.5z"/>
	<text transform="matrix(1 0 0 1 65.9162 133.2962)" class="st0 st1 st2">2</text>
</g>
</svg>
